<svg xmlns="http://www.w3.org/2000/svg" version="1.1" xmlns:xlink="http://www.w3.org/1999/xlink" xmlns:svgjs="http://svgjs.dev/svgjs" width="133px" height="113px"><svg version="1.1" id="SvgjsSvg1025" xmlns="http://www.w3.org/2000/svg" xmlns:xlink="http://www.w3.org/1999/xlink" width="133px" height="113px" xml:space="preserve">
<g id="SvgjsG1024" transform="matrix(-4.37114e-008, 1, 1, -4.37114e-008, 86.7, 60.75)" opacity="1">
<path style="fill:#4A7DBC;fill-opacity:1" d="M34.35 -21Q39.7 -11.55 39.7 0.15Q39.7 11.85 34.35 21.35Q31.4 26.6 26.9 31.05Q16.15 41.75 1.8 43.5Q13.45 41.75 22.35 33Q33.15 22.05 33.15 6.7Q33.15 -8.7 22.35 -19.55Q11.4 -30.5 -3.9 -30.5Q-19.4 -30.5 -30.2 -19.55Q-41.05 -8.7 -41.05 6.7Q-41.05 22.05 -30.2 33Q-21.45 41.75 -9.75 43.5Q-24.25 41.75 -34.95 31.05Q-47.65 18.2 -47.65 0.15Q-47.65 -17.9 -34.95 -30.75Q-22.1 -43.5 -3.9 -43.5Q14.1 -43.5 26.9 -30.75Q31.4 -26.2 34.35 -21"></path>
</g>
<g id="SvgjsG1023" transform="matrix(-4.37114e-008, 1, 1, -4.37114e-008, 86.7, 60.75)" opacity="1">
</g>
<g id="SvgjsG1022" transform="matrix(-6.15533e-009, -0.140818, 0.282166, -1.23339e-008, 24.7, 55.7)" opacity="1">
<path style="fill:#4A7DBC;fill-opacity:1" d="M9.25 -58.5Q25.55 -34.35 25.55 0Q25.55 34.35 9.25 58.5Q4.85 65 0 69.75Q-4.85 65 -9.25 58.5Q-25.55 34.35 -25.55 0Q-25.55 -34.35 -9.25 -58.5Q-4.85 -65 0 -69.7Q4.85 -65 9.25 -58.5"></path>
</g>
<g id="SvgjsG1021" transform="matrix(-6.15533e-009, -0.140818, 0.282166, -1.23339e-008, 24.7, 55.7)" opacity="1">
</g>
<g id="SvgjsG1020" transform="matrix(-0.0710565, 0.0710565, 0.142381, 0.142381, 46.05, 14.2)" opacity="1">
<path style="fill:#4A7DBC;fill-opacity:1" d="M9.25 -58.5Q25.55 -34.35 25.55 0Q25.55 34.35 9.25 58.5Q4.85 65 0 69.75Q-4.85 65 -9.25 58.5Q-25.55 34.35 -25.55 0Q-25.55 -34.35 -9.25 -58.5Q-4.85 -65 0 -69.7Q4.85 -65 9.25 -58.5"></path>
</g>
<g id="SvgjsG1019" transform="matrix(-0.0710565, 0.0710565, 0.142381, 0.142381, 46.05, 14.2)" opacity="1">
</g>
<g id="SvgjsG1018" transform="matrix(-0.0460872, -0.110147, 0.22071, -0.0923484, 29.6, 79.65)" opacity="1">
<path style="fill:#4A7DBC;fill-opacity:1" d="M9.25 -58.5Q25.55 -34.35 25.55 0Q25.55 34.35 9.25 58.5Q4.85 65 0 69.75Q-4.85 65 -9.25 58.5Q-25.55 34.35 -25.55 0Q-25.55 -34.35 -9.25 -58.5Q-4.85 -65 0 -69.7Q4.85 -65 9.25 -58.5"></path>
</g>
<g id="SvgjsG1017" transform="matrix(-0.0460872, -0.110147, 0.22071, -0.0923484, 29.6, 79.65)" opacity="1">
</g>
<g id="SvgjsG1016" transform="matrix(0.0710565, 0.0710565, -0.142381, 0.142381, 46.6, 99.1)" opacity="1">
<path style="fill:#4A7DBC;fill-opacity:1" d="M9.25 -58.5Q25.55 -34.35 25.55 0Q25.55 34.35 9.25 58.5Q4.85 65 0 69.75Q-4.85 65 -9.25 58.5Q-25.55 34.35 -25.55 0Q-25.55 -34.35 -9.25 -58.5Q-4.85 -65 0 -69.7Q4.85 -65 9.25 -58.5"></path>
</g>
<g id="SvgjsG1015" transform="matrix(0.0710565, 0.0710565, -0.142381, 0.142381, 46.6, 99.1)" opacity="1">
</g>
<g id="SvgjsG1014" transform="matrix(0.0460873, -0.110147, -0.22071, -0.0923484, 30.05, 33.75)" opacity="1">
<path style="fill:#4A7DBC;fill-opacity:1" d="M9.25 -58.5Q25.55 -34.35 25.55 0Q25.55 34.35 9.25 58.5Q4.85 65 0 69.75Q-4.85 65 -9.25 58.5Q-25.55 34.35 -25.55 0Q-25.55 -34.35 -9.25 -58.5Q-4.85 -65 0 -69.7Q4.85 -65 9.25 -58.5"></path>
</g>
<g id="SvgjsG1013" transform="matrix(0.0460873, -0.110147, -0.22071, -0.0923484, 30.05, 33.75)" opacity="1">
</g>
</svg><style>@media (prefers-color-scheme: light) { :root { filter: none; } }
@media (prefers-color-scheme: dark) { :root { filter: none; } }
</style></svg>