<?xml version="1.0" encoding="UTF-8" standalone="no"?>
<svg
   version="1.1"
   id="Layer_1"
   width="349.78729"
   height="104.75503"
   xml:space="preserve"
   xmlns="http://www.w3.org/2000/svg"
   xmlns:svg="http://www.w3.org/2000/svg"><defs
   id="defs61" />
<g
   id="PathID_1"
   transform="matrix(0.742188,0,0,0.742188,68.21697,69.373956)"
   opacity="1">
<path
   style="fill:#160b0b;fill-opacity:1"
   d="m 48.5,-39.15 v 19.7 q 0,9.1 -5.05,14.3 Q 38.35,0 29,0 H 1.3 V -39.15 H 8.35 V -7 l 7.95,0.05 7.75,0.1 q 10.1,0 13.15,-1.75 3.35,-1.9 4.05,-8.6 0.2,-2.7 0.2,-21.95 h 7.05"
   id="path2" />
</g>

<g
   id="PathID_3"
   transform="matrix(0.742188,0,0,0.742188,105.81697,69.373956)"
   opacity="1">
<path
   style="fill:#160b0b;fill-opacity:1"
   d="M 49,-4.05 44.8,1.2 16.9,-20.95 7.6,-17.2 V 0 H 0.55 V -39.15 H 7.6 v 14.6 l 38.6,-15.5 2.45,6.3 -24.75,9.8 25.1,19.9"
   id="path6" />
</g>

<g
   id="PathID_5"
   transform="matrix(0.742188,0,0,0.742188,142.51697,69.373956)"
   opacity="1">
<path
   style="fill:#160b0b;fill-opacity:1"
   d="M 64.6,-19.45 Q 64.6,0 45.1,0 H 29.45 V -3.9 Q 24.55,0.25 12.4,0.25 10.45,0.25 6.95,0.1 L 1.35,0 V -39.15 H 8.4 V -7 h 8.4 q 7.05,0 9.85,-2.85 2.8,-2.8 2.8,-9.8 v -16.5 H 36.5 V -7 h 8.4 q 7.05,0 9.85,-2.85 2.8,-2.8 2.8,-9.8 v -19.5 h 7.05 v 19.7"
   id="path10" />
</g>

<g
   id="PathID_7"
   transform="matrix(0.742188,0,0,0.742188,192.31697,69.373956)"
   opacity="1">
<path
   style="fill:#160b0b;fill-opacity:1"
   d="M 10.75,0 H 3.7 v -39.15 h 7.05 V 0"
   id="path14" />
</g>

<g
   id="PathID_9"
   transform="matrix(0.742188,0,0,0.742188,201.66697,69.373956)"
   opacity="1">
<path
   style="fill:#160b0b;fill-opacity:1"
   d="M 48.55,-23.1 Q 47.9,-11.15 44.2,-6.15 39.7,0 28.85,0 H 1.2 v -19.65 q 0,-9.15 5.1,-14.3 5.05,-5.2 14.35,-5.2 H 48.4 v 7.05 H 20.85 q -7.15,0 -9.85,2.75 -2.75,2.75 -2.75,9.9 V -7 H 28.7 q 6,0 8.3,-1.55 2.85,-2.3 3.9,-7.5 H 21.25 v -7.05 h 27.3"
   id="path18" />
</g>

<g
   id="PathID_11"
   transform="matrix(0.742188,0,0,0.742188,238.06697,69.373956)"
   opacity="1">
<path
   style="fill:#160b0b;fill-opacity:1"
   d="M 48.6,0 H 41.55 V -16.05 H 7.45 q 1,-0.35 1,16.05 H 1.4 v -19.65 q 0,-9.15 5.1,-14.3 5.1,-5.2 14.4,-5.2 H 48.6 V 0 m -7.05,-32.1 -8.45,-0.1 -7.25,-0.05 q -9.9,0 -12.7,1 -3.65,2.4 -4.4,8.15 h 32.8 v -9"
   id="path22" />
</g>

<g
   id="PathID_13"
   transform="matrix(0.742188,0,0,0.742188,275.46697,69.373956)"
   opacity="1">
<path
   style="fill:#160b0b;fill-opacity:1"
   d="M 49.35,3.25 9.2,-28.85 V 0 H 2.15 v -42.4 l 40.15,32.15 v -28.9 h 7.05 v 42.4"
   id="path26" />
</g>

<g
   id="PathID_15"
   transform="matrix(0.742188,0,0,0.742188,313.71697,69.373956)"
   opacity="1">
<path
   style="fill:#160b0b;fill-opacity:1"
   d="M 48.6,0 H 41.55 V -16.05 H 7.45 q 1,-0.35 1,16.05 H 1.4 v -19.65 q 0,-9.15 5.1,-14.3 5.1,-5.2 14.4,-5.2 H 48.6 V 0 m -7.05,-32.1 -8.45,-0.1 -7.25,-0.05 q -9.9,0 -12.7,1 -3.65,2.4 -4.4,8.15 h 32.8 v -9"
   id="path30" />
</g>

<g
   id="PathID_17"
   transform="matrix(-4.37114e-8,1,1,-4.37114e-8,81.66697,56.473956)"
   opacity="1">
<path
   style="fill:#4a7dbc;fill-opacity:1"
   d="m 34.35,-21 q 5.35,9.45 5.35,21.15 0,11.7 -5.35,21.2 Q 31.4,26.6 26.9,31.05 16.15,41.75 1.8,43.5 13.45,41.75 22.35,33 33.15,22.05 33.15,6.7 33.15,-8.7 22.35,-19.55 11.4,-30.5 -3.9,-30.5 q -15.5,0 -26.3,10.95 -10.85,10.85 -10.85,26.25 0,15.35 10.85,26.3 8.75,8.75 20.45,10.5 -14.5,-1.75 -25.2,-12.45 -12.7,-12.85 -12.7,-30.9 0,-18.05 12.7,-30.9 12.85,-12.75 31.05,-12.75 18,0 30.8,12.75 4.5,4.55 7.45,9.75"
   id="path34" />
</g>

<g
   id="PathID_19"
   transform="matrix(0,-0.140818,0.282166,-1.23339e-8,19.66697,51.423956)"
   opacity="1">
<path
   style="fill:#4a7dbc;fill-opacity:1"
   d="m 9.25,-58.5 q 16.3,24.15 16.3,58.5 0,34.35 -16.3,58.5 Q 4.85,65 0,69.75 -4.85,65 -9.25,58.5 -25.55,34.35 -25.55,0 q 0,-34.35 16.3,-58.5 4.4,-6.5 9.25,-11.2 4.85,4.7 9.25,11.2"
   id="path38" />
</g>

<g
   id="PathID_21"
   transform="matrix(-0.0710565,0.0710565,0.142381,0.142381,41.01697,9.9239557)"
   opacity="1">
<path
   style="fill:#4a7dbc;fill-opacity:1"
   d="m 9.25,-58.5 q 16.3,24.15 16.3,58.5 0,34.35 -16.3,58.5 Q 4.85,65 0,69.75 -4.85,65 -9.25,58.5 -25.55,34.35 -25.55,0 q 0,-34.35 16.3,-58.5 4.4,-6.5 9.25,-11.2 4.85,4.7 9.25,11.2"
   id="path42" />
</g>

<g
   id="PathID_23"
   transform="matrix(-0.0460872,-0.110147,0.22071,-0.0923484,24.56697,75.373956)"
   opacity="1">
<path
   style="fill:#4a7dbc;fill-opacity:1"
   d="m 9.25,-58.5 q 16.3,24.15 16.3,58.5 0,34.35 -16.3,58.5 Q 4.85,65 0,69.75 -4.85,65 -9.25,58.5 -25.55,34.35 -25.55,0 q 0,-34.35 16.3,-58.5 4.4,-6.5 9.25,-11.2 4.85,4.7 9.25,11.2"
   id="path46" />
</g>

<g
   id="PathID_25"
   transform="matrix(0.0710565,0.0710565,-0.142381,0.142381,41.56697,94.823956)"
   opacity="1">
<path
   style="fill:#4a7dbc;fill-opacity:1"
   d="m 9.25,-58.5 q 16.3,24.15 16.3,58.5 0,34.35 -16.3,58.5 Q 4.85,65 0,69.75 -4.85,65 -9.25,58.5 -25.55,34.35 -25.55,0 q 0,-34.35 16.3,-58.5 4.4,-6.5 9.25,-11.2 4.85,4.7 9.25,11.2"
   id="path50" />
</g>

<g
   id="PathID_27"
   transform="matrix(0.0460873,-0.110147,-0.22071,-0.0923484,25.01697,29.473956)"
   opacity="1">
<path
   style="fill:#4a7dbc;fill-opacity:1"
   d="m 9.25,-58.5 q 16.3,24.15 16.3,58.5 0,34.35 -16.3,58.5 Q 4.85,65 0,69.75 -4.85,65 -9.25,58.5 -25.55,34.35 -25.55,0 q 0,-34.35 16.3,-58.5 4.4,-6.5 9.25,-11.2 4.85,4.7 9.25,11.2"
   id="path54" />
</g>

</svg>
